<svg height="682pt" viewBox="-21 -21 682.66647 682" width="682pt" xmlns="http://www.w3.org/2000/svg"><path d="m469.160156 336.792969c8.871094 0 12.699219-11.734375 5.515625-16.957031l-108.164062-78.671876c-9.734375-7.082031-20.773438 8.070313-11.023438 15.160157l108.164063 78.671875c1.664062 1.210937 3.59375 1.796875 5.507812 1.796875zm0 0"/><path d="m630.113281 621.492188h-12.320312c8.695312-9.8125 13.988281-22.703126 13.988281-36.8125 0-27.796876-20.882812-51.171876-47.78125-54.996094-8.339844-21.464844-27.773438-36.78125-50.488281-39.988282v-165.183593l24.398437 17.898437c35.394532 25.96875 75.523438-28.945312 40.210938-54.835937l-122.8125-90.074219c22.734375 1.070312 45.863281-.496094 67.894531-6.46875 11.617187-3.148438 6.792969-21.265625-4.902344-18.09375-27.046875 7.328125-55.5625 6.640625-73.75 4.972656l89.941407-83.066406h59.097656c-5.441406 20.113281-14.8125 40.113281-30.699219 54.765625-8.878906 8.179687 3.851563 21.945313 12.703125 13.785156 39.257812-36.195312 48.785156-100.28125 42.734375-150.945312-.546875-4.5625-4.707031-8.367188-9.320313-8.429688-6.308593-1.128906-27.675781-4.488281-53.972656-3.511719-41.550781 1.535157-75.460937 13.367188-98.066406 34.207032-35.410156 32.644531-44.699219 85.851562-43.847656 131.84375l-105.878906-77.652344c-11.792969-8.652344-28.3125-8.671875-40.132813-.058594l-190.5625 138.921875c-9.734375 7.09375 1.164063 22.347657 11.046875 15.148438l190.558594-138.917969c5.269531-3.84375 12.734375-3.835938 18 .03125l270.882812 198.660156c15.683594 11.507813-2.039062 36.339844-18.042968 24.601563l-256.355469-188.019531c-3.292969-2.410157-7.769531-2.421876-11.070313-.015626l-257.972656 188.058594c-15.878906 11.589844-33.832031-13.085937-17.964844-24.652344l40.71875-29.683593c9.734375-7.09375-1.164062-22.355469-11.046875-15.148438l-40.710937 29.683594c-35.304688 25.726563 4.507812 80.878906 40.046875 54.953125l24.480469-17.847656v192.898437c-16.84375 3.554688-31.074219 15.25-37.710938 31.300781-21.75 3.640626-38.476562 22.742188-38.476562 45.390626 0 10.203124 3.34375 19.636718 8.984374 27.273437-13.726562-.753906-16.738281 18.75-2.953124 18.75h208.089843c5.253907 0 10.257813-5.078125 9.789063-10.429687v-153.246094c0-43.246094 36.230468-79.46875 79.472656-79.46875s79.472656 36.222656 79.472656 79.46875v71.386718c-18.691406 6.363282-32.183594 24.074219-32.183594 44.886719 0 10.5625 3.476563 20.328125 9.34375 28.21875h-84.65625c-12.121093 0-12.402343 19.183594 0 19.183594h351.816407c5.183593 0 9.375-4.191406 9.375-9.367187 0-5.183594-4.191407-9.375-9.367188-9.375zm-257.765625-28.660157c0-15.804687 12.855469-28.660156 28.664063-28.660156 3.554687 0 7.03125.648437 10.324219 1.921875 7.046874 2.726562 14.5625-4.148438 12.355468-11.453125-.960937-3.179687-1.285156-6.484375-.960937-9.835937 1.144531-11.976563 11.066406-21.71875 23.078125-22.660157 9.152344-.71875 17.695312 3.351563 22.882812 10.878907 3.890625 5.648437 12.839844 5.140624 16.03125-.984376 7.785156-14.953124 23.070313-24.234374 39.890625-24.234374 20.253907 0 38.097657 13.636718 43.382813 33.167968 1.09375 4.023438 4.71875 6.847656 8.886718 6.917969 19.9375.347656 36.152344 16.851563 36.152344 36.789063 0 20.296874-16.507812 36.8125-36.804687 36.8125h-175.21875c-15.800781 0-28.664063-12.859376-28.664063-28.660157zm117.328125-544.328125c.113281-.105468.230469-.195312.34375-.300781v80.664063l-38.15625 35.242187c-.296875-29.210937 4.042969-84.472656 37.8125-115.605469zm127.945313 27.597656h-42.832032l45.910157-42.402343c.125 11.195312-.425781 26.273437-3.078125 42.402343zm-9.925782-55.914062-98.929687 91.367188v-76.441407c32.804687-17.46875 74.785156-17.089843 98.929687-14.925781zm-586.015624 574.023438c0-14.777344 12.019531-27.003907 26.792968-27.261719 4.167969-.074219 7.792969-2.894531 8.878906-6.917969 2.996094-11.046875 11.335938-19.570312 21.769532-23.109375v84.570313h-30.160156c-15.046876 0-27.28125-12.238282-27.28125-27.28125zm284.632812-215.863282c-54.15625 0-98.21875 44.054688-98.21875 98.214844v144.929688h-110.226562v-310.535157l209.207031-152.507812 207.691406 152.320312v179.066407c-15.679687 2.429687-29.808594 10.589843-39.722656 22.90625-8.589844-6.71875-19.535157-10.15625-30.699219-9.285157-19.828125 1.554688-36.386719 16.855469-39.8125 36.207031v-63.105468c0-54.15625-44.058594-98.210938-98.21875-98.210938zm0 0"/></svg>